<?xml version="1.0" standalone="no"?>
<!DOCTYPE svg PUBLIC "-//W3C//DTD SVG 20010904//EN"
        "http://www.w3.org/TR/2001/REC-SVG-20010904/DTD/svg10.dtd">
<svg version="1.0" xmlns="http://www.w3.org/2000/svg"
     width="669.000000pt" height="669.000000pt" viewBox="0 0 669.000000 669.000000"
     preserveAspectRatio="xMidYMid meet">
    <metadata>
        Created by potrace 1.14, written by Peter Selinger 2001-2017
    </metadata>
    <g transform="translate(0.000000,669.000000) scale(0.100000,-0.100000)"
       fill="#000000" stroke="none">
        <path d="M685 6500 c-11 -5 -76 -9 -145 -9 l-125 -1 0 -3022 0 -3023 -207 -3
-208 -2 0 -149 0 -149 207 -5 c321 -7 5583 -8 6061 0 l422 6 0 148 0 149 -237
2 -238 3 -3 3022 -2 3022 -38 3 c-20 2 -79 2 -129 0 l-93 -3 0 -69 0 -68 -477
-5 c-649 -6 -4581 -2 -4589 5 -3 4 -6 38 -7 76 -1 39 -5 68 -9 65 -5 -2 -8 1
-8 6 0 13 -145 14 -175 1z m769 -330 c3 -69 6 -570 6 -1115 l0 -990 1890 3
1890 2 0 -74 0 -74 -102 -7 c-57 -3 -904 -5 -1883 -3 l-1780 3 -5 70 c-3 39
-9 -384 -13 -940 -5 -555 -11 -1365 -15 -1800 l-7 -790 -77 -3 -78 -3 0 188
c-4 2034 -6 5342 -3 5481 l4 184 83 -4 83 -3 7 -125z m1895 123 c16 -4 19 -8
10 -14 -9 -5 -5 -10 14 -14 26 -7 40 -43 17 -46 -5 -1 -14 -2 -19 -3 -18 -2
-24 -16 -8 -16 9 0 17 -4 17 -9 0 -5 8 -12 18 -14 9 -3 -206 -5 -478 -5 -284
0 -486 3 -475 8 11 5 14 9 7 9 -7 1 -10 6 -7 11 3 6 1 11 -4 11 -26 3 -30 4
-37 12 -16 16 -11 36 9 44 12 4 25 6 30 5 4 -1 7 5 7 13 0 14 53 15 438 15
241 -1 448 -3 461 -7z m2092 -27 c1 -15 3 -13 8 9 18 77 22 -490 19 -3060 l-3
-2760 -76 -3 c-72 -3 -77 -2 -83 20 -9 35 -7 5668 2 5668 4 0 6 15 4 34 -2 19
1 50 7 69 10 28 16 34 36 31 14 -1 23 2 20 6 -6 10 23 18 48 12 9 -2 18 -14
18 -26z m-4288 -108 c4 -46 7 -1346 7 -2889 l0 -2807 -32 -3 c-18 -2 -43 -3
-55 -1 l-23 3 0 2890 0 2889 49 0 48 0 6 -82z m4541 45 c3 -21 6 -1322 6
-2891 l0 -2852 -60 0 -60 0 0 2848 c1 1566 3 2866 7 2890 l6 42 47 0 c47 0 47
0 54 -37z m-4693 -255 c1 -147 -1 -464 -5 -625 0 -35 -4 -63 -8 -63 -5 0 -8
-5 -8 -11 0 -5 5 -7 12 -3 7 5 8 3 3 -5 -8 -13 -14 -126 -15 -275 0 -74 -2
-87 -15 -82 -8 3 -15 1 -15 -4 0 -6 7 -10 15 -10 13 0 14 -4 5 -20 -10 -20
-12 -20 -34 -3 -19 15 -21 19 -9 24 14 4 14 7 -1 21 -18 18 -22 33 -6 23 6 -3
10 -2 10 4 0 5 -4 13 -10 16 -5 3 -10 16 -11 28 0 21 -1 21 -9 2 -5 -12 -10
185 -12 470 -1 270 -3 522 -3 560 -1 105 4 115 65 115 l50 0 1 -162z m-151
-1668 c0 -1001 -4 -1820 -8 -1820 -4 0 -7 -13 -7 -30 0 -16 4 -30 9 -30 5 0 3
-6 -3 -13 -6 -8 -8 -17 -4 -20 3 -4 1 -7 -5 -7 -7 0 -12 -7 -12 -16 0 -9 5
-12 13 -8 6 4 4 -2 -7 -14 -10 -12 -16 -28 -13 -36 6 -16 -25 -41 -37 -29 -3
3 -6 1 -6 -4 0 -6 5 -13 12 -15 7 -3 6 -7 -5 -11 -11 -4 -17 -1 -18 8 -1 8 -2
25 -3 38 -1 12 2 28 8 35 7 9 3 15 -13 19 -16 4 -19 9 -11 18 8 10 5 17 -12
29 -12 9 -18 16 -13 16 6 0 3 5 -5 10 -13 9 -13 10 0 10 12 0 12 2 2 9 -11 6
-14 351 -19 1844 l-6 1837 81 0 82 0 0 -1820z m3252 1658 c14 -12 16 -108 21
-920 l6 -908 -135 0 -134 0 0 903 c0 496 4 907 8 913 12 19 33 22 128 23 58 1
96 -3 106 -11z m249 -18 c17 -10 19 -21 17 -108 l-2 -97 -6 70 c-9 110 -15
-152 -18 -955 -2 -388 -7 -709 -11 -713 -4 -4 -46 -7 -92 -5 l-84 3 -2 895
c-2 492 -1 901 2 908 6 15 167 17 196 2z m780 -162 c13 -11 14 -92 7 -613 -10
-786 -17 -1023 -32 -1028 -6 -2 -39 -2 -73 1 l-63 4 0 812 c0 618 3 815 12
824 16 16 130 16 149 0z m-1311 -868 l0 -780 -100 0 -99 0 -4 273 c-2 149 -3
496 -2 771 2 412 5 500 16 507 8 5 53 9 102 9 l87 0 0 -780z m-273 523 c-4
-93 -7 -421 -7 -730 l0 -563 -86 0 -86 0 6 268 c6 245 16 551 32 1002 3 96 8
178 11 183 2 4 34 7 70 7 l66 0 -6 -167z m1391 -575 l2 -728 -55 0 c-36 0 -57
5 -60 13 -2 6 -5 332 -7 724 l-3 712 40 4 c22 2 49 3 60 3 20 -1 20 -9 23
-728z m-450 -15 l-3 -708 -57 -3 -58 -3 0 711 0 710 60 0 60 0 -2 -707z
m-1119 465 c-1 -106 -6 -267 -10 -358 -5 -91 -13 -266 -19 -390 -17 -354 -20
-390 -39 -390 -9 0 -38 12 -66 25 -37 18 -66 25 -112 25 -52 0 -64 3 -73 20
-10 19 -8 20 60 20 40 0 70 4 70 10 0 6 -28 10 -64 10 -36 0 -68 -4 -71 -10
-6 -10 -155 -14 -155 -4 0 20 24 44 43 43 12 -1 83 -1 158 -1 117 2 138 4 143
18 4 9 5 17 4 18 -2 1 -292 -1 -645 -4 -454 -4 -645 -8 -653 -16 -8 -8 41 -13
189 -19 l201 -7 0 -30 c0 -48 -13 -53 -152 -53 -126 0 -128 0 -128 23 0 12 6
22 13 22 6 0 19 6 28 13 13 10 2 12 -60 13 -63 1 -68 0 -31 -6 25 -4 39 -8 33
-8 -9 -2 -13 -22 -13 -67 l0 -65 -74 0 -75 0 -5 53 c-3 28 -11 122 -17 207 -5
85 -19 256 -30 380 -35 392 -46 545 -40 552 8 8 207 34 376 49 145 13 867 16
988 5 l77 -8 0 61 0 61 75 0 76 0 -2 -192z m1265 95 c8 -97 8 -373 -1 -876
l-6 -398 -51 3 -51 3 -3 673 -2 672 53 0 54 0 7 -77z m146 -480 c0 -247 -3
-524 -6 -618 l-7 -170 -48 3 -49 4 0 614 0 614 55 0 55 0 0 -447z m-3030 225
c0 -24 7 -99 15 -168 36 -314 68 -820 53 -835 -2 -2 -28 -5 -58 -6 l-54 -3
-12 94 c-7 52 -28 212 -48 355 -58 437 -72 585 -55 596 8 5 47 9 87 9 l72 0 0
-42z m1278 -970 l3 -28 -70 0 c-39 0 -71 3 -71 8 0 4 3 17 6 30 6 21 11 23 68
20 58 -3 61 -4 64 -30z m-704 6 c9 -24 7 -31 -9 -38 -11 -4 -15 2 -15 24 0 32
14 40 24 14z m-236 -6 c-6 -18 -28 -21 -28 -4 0 9 7 16 16 16 9 0 14 -5 12
-12z m1997 -517 c206 -19 318 -37 310 -51 -3 -5 3 -11 12 -13 10 -2 6 -3 -8
-1 -321 38 -317 38 -914 39 -612 0 -733 -5 -1018 -46 -175 -25 -211 -39 -230
-88 -41 -101 -62 -497 -52 -956 8 -411 16 -533 33 -544 14 -9 224 -27 524 -46
111 -7 186 -13 166 -14 -21 0 -38 -6 -38 -13 0 -13 -370 -5 -541 13 -110 11
-146 25 -154 62 -9 41 -25 499 -25 712 0 258 17 640 31 718 22 124 57 155 199
181 94 17 344 42 545 56 171 11 1007 4 1160 -9z m-80 -80 c159 -15 303 -34
282 -39 -16 -3 -17 -10 -12 -43 5 -27 3 -39 -5 -39 -7 0 -10 -8 -7 -20 3 -11
1 -20 -5 -20 -6 0 -7 -7 -4 -16 3 -8 2 -12 -4 -9 -6 3 -10 0 -10 -9 0 -8 -6
-17 -12 -19 -8 -3 -5 -6 5 -6 10 -1 15 -6 12 -11 -4 -6 -11 -8 -16 -5 -5 4
-10 1 -10 -4 -1 -6 -2 -15 -3 -21 0 -5 -8 -18 -17 -28 -8 -10 -14 -23 -11 -30
2 -7 -1 -12 -7 -12 -6 0 -10 -3 -9 -7 1 -5 -3 -18 -10 -29 -6 -12 -8 -25 -4
-29 4 -5 -1 -5 -11 -2 -10 4 -16 3 -13 -2 3 -4 -3 -16 -14 -26 -11 -10 -20
-24 -20 -32 0 -7 -6 -13 -12 -13 -9 0 -8 -4 2 -10 12 -8 10 -10 -10 -11 -14 0
-20 -3 -14 -5 15 -6 -6 -54 -23 -54 -7 0 -13 -5 -13 -11 0 -6 -9 -22 -20 -36
-11 -14 -17 -30 -13 -36 3 -6 1 -7 -5 -3 -13 8 -35 -28 -24 -39 4 -5 1 -5 -5
-1 -8 4 -13 2 -13 -6 0 -13 -22 -42 -87 -115 -21 -23 -38 -46 -38 -50 0 -15
-39 -53 -55 -53 -12 0 -13 -2 -1 -9 11 -7 9 -10 -8 -16 -11 -3 -21 -10 -21
-13 0 -4 -18 -29 -40 -56 -22 -26 -38 -51 -35 -56 5 -8 -34 -47 -43 -42 -3 1
-7 -5 -8 -15 -2 -9 -15 -26 -30 -37 -52 -41 -75 -66 -68 -78 4 -7 3 -8 -4 -4
-7 4 -12 2 -12 -4 0 -6 -5 -8 -12 -4 -8 5 -9 2 -5 -9 3 -9 3 -16 -1 -14 -11 3
-112 -99 -112 -115 0 -10 -3 -9 -10 2 -8 13 -10 12 -10 -3 0 -10 -4 -15 -10
-12 -5 3 -10 -1 -10 -9 0 -10 -9 -16 -22 -17 -13 0 -17 -3 -10 -6 20 -8 14
-22 -8 -18 -11 2 -20 -1 -20 -6 0 -6 -5 -7 -12 -3 -6 4 -8 3 -4 -4 3 -6 1 -14
-5 -18 -6 -3 -15 0 -20 7 -7 11 -9 10 -9 -3 0 -10 -5 -18 -11 -18 -5 0 -7 -4
-4 -10 3 -5 0 -10 -7 -10 -8 0 -20 -9 -28 -20 -10 -14 -16 -16 -22 -7 -6 9 -8
9 -8 -1 0 -7 -4 -11 -9 -7 -6 3 -15 -4 -21 -15 -10 -18 -14 -19 -28 -8 -13 11
-14 11 -8 0 7 -11 -38 -13 -260 -7 -148 3 -339 12 -424 18 l-155 12 -9 155
c-22 387 -10 977 25 1213 l11 76 112 26 c136 33 363 63 556 75 180 10 926 4
1075 -9z m-2073 -948 c-1 -478 -4 -874 -7 -880 -3 -9 -25 -13 -63 -13 l-60 0
-6 293 c-4 160 -11 409 -17 552 -15 402 -27 899 -22 908 2 4 43 7 91 7 l87 0
-3 -867z m73 817 c0 -42 -2 -45 -27 -48 -27 -3 -28 -2 -28 48 0 50 1 51 28 48
25 -3 27 -6 27 -48z m5 -880 l0 -820 -23 0 -24 0 -6 812 c-3 446 -4 815 -1
820 3 4 16 8 30 8 l24 0 0 -820z m-286 558 c9 -116 34 -779 42 -1105 6 -250 5
-273 -10 -279 -9 -4 -19 -4 -23 -1 -3 3 -11 109 -19 234 -7 125 -18 282 -24
348 -15 181 -59 657 -71 768 -5 53 -7 102 -4 107 3 6 28 10 55 10 l48 0 6 -82z
m-129 -100 c5 -32 10 -82 55 -508 16 -158 50 -663 50 -757 0 -20 -5 -23 -40
-23 l-40 0 -1 53 c0 28 -7 84 -14 122 l-14 70 6 -65 c4 -36 7 -90 8 -120 l0
-55 -58 -3 -58 -3 1 333 c2 474 13 475 80 0 7 -46 14 -81 17 -79 5 5 -4 72
-41 312 -29 184 -52 410 -62 607 l-7 136 24 5 c13 2 38 5 56 6 29 1 33 -2 38
-31z m3659 -220 c3 -29 6 -74 6 -100 l0 -48 -535 0 -535 0 0 93 c0 52 3 97 7
100 3 4 241 7 528 7 l522 0 7 -52z m-12 -223 c2 -47 -1 -66 -10 -70 -8 -3
-274 -5 -593 -5 l-579 0 0 63 c0 35 3 67 7 70 3 4 268 7 589 7 l582 0 4 -65z
m-1199 -72 c-7 -2 -21 -2 -30 0 -10 3 -4 5 12 5 17 0 24 -2 18 -5z m1187 -127
l0 -93 -67 -6 c-38 -4 -314 -7 -615 -7 l-548 0 0 93 c0 52 3 97 7 100 3 4 280
7 615 7 l608 0 0 -94z m-4496 -5 c3 -5 -1 -11 -9 -14 -9 -4 -12 -1 -8 9 6 16
10 17 17 5z m4277 -129 l136 -3 6 -72 c4 -39 3 -75 -1 -78 -4 -4 -288 -8 -632
-10 l-625 -4 -3 79 c-2 57 1 82 10 87 12 8 820 9 1109 1z m222 -269 c4 -47 2
-82 -4 -88 -6 -6 -188 -12 -482 -16 l-472 -5 340 -2 c187 -1 403 -5 480 -9
l140 -6 0 -63 1 -64 -471 0 c-258 0 -630 -3 -825 -6 -195 -3 -368 -1 -385 4
-28 8 -30 12 -33 61 -2 29 2 58 8 66 8 10 68 12 273 10 144 -1 173 0 65 2
l-198 3 0 95 0 95 779 0 778 0 6 -77z m-2085 -189 c23 -4 42 -10 42 -15 0 -19
-42 -27 -177 -31 l-143 -5 0 35 0 35 118 -7 c64 -4 136 -9 160 -12z m767 -102
c121 -4 211 -9 200 -10 -28 -4 -75 -31 -54 -32 21 0 48 -30 29 -30 -7 0 -1
-11 14 -23 l27 -24 -257 -6 c-141 -4 -736 -7 -1321 -7 -1006 0 -1063 1 -1063
18 -1 9 -2 40 -3 69 l-2 52 70 4 c120 6 2128 -3 2360 -11z m229 -304 c7 -10
18 -18 25 -18 6 0 11 -7 11 -15 0 -9 8 -19 17 -22 15 -6 15 -7 -3 -14 -12 -5
10 -8 56 -9 57 -2 68 -4 45 -10 -16 -4 106 -8 272 -9 288 -1 303 -2 313 -20
13 -25 14 -571 1 -571 -5 0 -10 114 -11 272 0 149 -3 275 -6 280 -3 4 -116 8
-251 8 -136 0 -244 -2 -242 -4 3 -3 24 -6 47 -7 44 -3 56 -20 24 -38 -9 -6
-14 -11 -11 -11 4 0 3 -16 -1 -36 -7 -30 -5 -36 11 -42 11 -4 -7 -7 -42 -7
-57 0 -63 -2 -95 -38 -26 -28 -34 -45 -34 -74 0 -42 28 -96 59 -112 19 -11 21
-36 6 -61 -3 -6 0 -10 7 -10 9 0 9 -3 -2 -10 -8 -5 -10 -10 -5 -10 6 0 3 -5
-5 -10 -12 -8 -13 -13 -2 -30 7 -11 9 -20 5 -19 -5 1 -15 1 -23 0 -13 -1 -13
-2 0 -11 12 -7 12 -10 1 -10 -7 0 -11 -6 -8 -14 9 -23 -161 -26 -1448 -26
-1171 0 -1228 -1 -1212 -17 17 -17 58 -18 575 -18 995 0 1394 -4 1387 -15 -3
-5 1 -10 9 -10 9 0 16 -4 16 -10 0 -5 7 -10 15 -10 8 0 15 -7 15 -15 0 -8 6
-15 13 -16 10 0 10 -2 0 -6 -7 -2 -13 -14 -13 -26 0 -18 -2 -19 -10 -7 -9 13
-10 13 -10 0 -1 -39 -14 -40 -1102 -40 l-1048 0 0 460 0 461 1321 -3 c1244 -3
1321 -4 1333 -20z m320 -320 c10 -14 16 -44 16 -80 0 -78 -20 -99 -91 -96 -42
2 -55 7 -75 31 -28 33 -31 75 -9 117 20 39 41 49 97 50 37 0 50 -5 62 -22z
m-84 -208 c13 -8 13 -10 -2 -10 -9 0 -18 -6 -21 -12 -3 -7 -4 -3 -4 10 1 24 5
26 27 12z m-743 -366 c-3 -3 -12 -4 -19 -1 -8 3 -5 6 6 6 11 1 17 -2 13 -5z
m2336 -61 c2 -5 -1 -56 -6 -115 l-10 -108 -2619 0 -2618 0 0 99 c0 55 -3 106
-6 115 -6 15 230 16 2624 16 1447 0 2633 -3 2635 -7z" />
        <path d="M5413 6143 c9 -2 23 -2 30 0 6 3 -1 5 -18 5 -16 0 -22 -2 -12 -5z" />
        <path d="M2378 5293 c7 -3 16 -2 19 1 4 3 -2 6 -13 5 -11 0 -14 -3 -6 -6z" />
        <path d="M2773 5293 c37 -2 96 -2 130 0 34 2 4 3 -68 3 -71 0 -99 -1 -62 -3z" />
        <path d="M3063 5283 c15 -2 39 -2 55 0 15 2 2 4 -28 4 -30 0 -43 -2 -27 -4z" />
        <path d="M3163 5273 c9 -2 23 -2 30 0 6 3 -1 5 -18 5 -16 0 -22 -2 -12 -5z" />
        <path d="M3211 5101 c-1 -213 -29 -641 -43 -658 -8 -10 -132 -13 -557 -13
-300 0 -552 4 -559 9 -29 18 -78 741 -54 798 l12 28 -21 -25 c-21 -24 -21 -30
-15 -210 12 -310 33 -588 46 -610 9 -15 91 -16 743 -12 l417 2 9 23 c26 68 52
752 31 817 -5 15 -8 -46 -9 -149z" />
        <path d="M2242 2080 c0 -14 2 -19 5 -12 2 6 2 18 0 25 -3 6 -5 1 -5 -13z" />
        <path d="M2080 1141 c-38 -38 -30 -64 9 -28 48 46 105 60 141 37 11 -7 2 -10
-33 -10 -62 0 -96 -21 -132 -79 -20 -33 -28 -60 -29 -96 -1 -78 24 -113 114
-158 67 -34 80 -37 125 -32 34 5 57 15 73 31 13 13 20 24 17 24 -3 0 1 10 10
23 21 33 29 105 16 153 -27 100 -97 154 -212 162 -66 4 -69 4 -99 -27z m185
-55 c21 -14 25 -24 25 -70 0 -85 -41 -123 -115 -104 l-30 7 24 -19 c13 -11 30
-20 38 -20 8 0 11 -4 8 -10 -10 -16 18 -12 43 6 13 9 25 14 28 11 6 -6 -36
-32 -64 -39 -35 -9 -85 9 -117 42 -22 23 -29 41 -33 83 -4 47 -1 57 24 86 15
18 37 37 48 42 29 12 92 4 121 -15z" />
        <path d="M3210 1061 c-69 -68 -45 -173 51 -221 83 -43 155 -16 180 68 11 37 9
45 -12 89 -31 63 -77 93 -141 93 -41 0 -54 -5 -78 -29z m144 -17 c19 -20 26
-37 26 -66 0 -44 -22 -93 -45 -102 -68 -26 -135 23 -135 97 0 88 93 131 154
71z" />
        <path d="M3784 1050 c-31 -12 -49 -71 -34 -114 24 -73 109 -107 159 -62 41 38
39 119 -4 162 -25 25 -78 31 -121 14z m91 -30 c37 -41 11 -130 -37 -130 -30 0
-68 45 -68 80 0 60 67 92 105 50z" />
        <path d="M2733 1026 c-23 -20 -28 -32 -28 -69 0 -83 84 -139 154 -103 81 42
34 196 -60 196 -26 0 -47 -8 -66 -24z m100 -14 c9 -10 20 -32 23 -49 5 -26 1
-37 -19 -57 -32 -32 -51 -33 -82 -1 -30 30 -32 64 -4 99 24 30 59 34 82 8z" />
    </g>
</svg>
